<svg preserveAspectRatio="none" overflow="visible" style="display: block;" width="1341.24" height="1315.24" viewBox="0 0 1341.24 1315.24" fill="none" xmlns="http://www.w3.org/2000/svg">
<g id="Group 47" opacity="0.0636858">
<g id="Group 3">
<mask id="mask0_0_5371" style="mask-type:luminance" maskUnits="userSpaceOnUse" x="81" y="58" width="1261" height="1258">
<path id="Clip 2" fill-rule="evenodd" clip-rule="evenodd" d="M81.2172 58.5045H1341.24V1315.24H81.2172V58.5045Z" fill="white"/>
</mask>
<g mask="url(#mask0_0_5371)">
<path id="Fill 1" fill-rule="evenodd" clip-rule="evenodd" d="M1338.94 581.114C1339.34 572.151 1335.17 563.737 1327.8 558.612L618.802 65.4558C613.089 61.4788 606.161 59.9608 599.299 61.1778C592.441 62.3988 586.466 66.2078 582.485 71.9098L88.1778 778.914C85.3428 782.969 83.7288 787.716 83.5138 792.634C83.1228 801.599 87.2908 810.009 94.6588 815.14L803.655 1308.29C809.374 1312.27 816.295 1313.79 823.161 1312.57C830.018 1311.35 835.994 1307.54 839.977 1301.84L1334.28 594.839C1337.12 590.782 1338.73 586.033 1338.94 581.114M81.2448 792.536C81.4808 787.186 83.2358 782.03 86.3188 777.62L580.62 70.6148C584.952 64.4188 591.445 60.2768 598.903 58.9498C606.361 57.6258 613.888 59.2768 620.102 63.5978L1329.1 556.756C1337.11 562.33 1341.64 571.472 1341.21 581.216C1340.98 586.564 1339.23 591.721 1336.14 596.134L841.837 1303.13C837.507 1309.33 831.017 1313.47 823.559 1314.8C816.103 1316.13 808.574 1314.47 802.357 1310.15L93.3638 816.992C85.3518 811.422 80.8188 802.278 81.2448 792.536" fill="#DADADA"/>
</g>
</g>
<path id="Fill 4" fill-rule="evenodd" clip-rule="evenodd" d="M1306.01 573.983C1306.39 565.384 1302.43 557.262 1295.42 552.257L610.484 62.817C604.971 58.873 598.246 57.309 591.551 58.41C584.855 59.513 578.994 63.15 575.041 68.65L84.4593 751.658C81.5813 755.669 79.9453 760.379 79.7313 765.282C79.3553 773.883 83.3133 782.006 90.3213 787.006L775.257 1276.45C786.649 1284.58 802.545 1281.97 810.698 1270.62L1301.28 587.608C1304.16 583.599 1305.8 578.885 1306.01 573.983M77.4653 765.18C77.6963 759.841 79.4793 754.708 82.6163 750.34L573.199 67.334C577.502 61.341 583.889 57.381 591.18 56.179C598.472 54.979 605.797 56.683 611.806 60.976L1296.74 550.419C1304.38 555.871 1308.69 564.715 1308.28 574.081C1308.04 579.424 1306.27 584.56 1303.13 588.926L812.541 1271.93C803.66 1284.3 786.336 1287.15 773.935 1278.29L88.9983 788.848C81.3683 783.397 77.0543 774.55 77.4653 765.18" fill="#DADADA"/>
<path id="Fill 6" fill-rule="evenodd" clip-rule="evenodd" d="M1273.08 566.849C1273.44 558.616 1269.68 550.783 1263.05 545.9L602.168 60.1762C591.194 52.1112 575.689 54.4522 567.602 65.3942L80.7436 724.406C77.8176 728.362 76.1576 733.043 75.9436 737.935C75.5836 746.168 79.3356 753.998 85.9796 758.879L746.852 1244.61C752.173 1248.52 758.693 1250.12 765.223 1249.14C771.755 1248.15 777.508 1244.69 781.424 1239.39L1268.28 580.374C1271.21 576.419 1272.87 571.741 1273.08 566.849M73.6776 737.831C73.9116 732.49 75.7206 727.384 78.9146 723.066L565.776 64.0522C574.604 52.1042 591.532 49.5492 603.512 58.3542L1264.39 544.078C1271.64 549.412 1275.74 557.963 1275.34 566.95C1275.11 572.291 1273.3 577.397 1270.11 581.719L783.25 1240.73C778.972 1246.52 772.695 1250.3 765.564 1251.37C758.437 1252.45 751.315 1250.69 745.513 1246.43L84.6346 760.703C77.3826 755.371 73.2846 746.823 73.6776 737.831" fill="#DADADA"/>
<path id="Fill 8" fill-rule="evenodd" clip-rule="evenodd" d="M1240.16 559.715C1240.5 551.842 1236.95 544.304 1230.67 539.545L593.849 57.5364C588.73 53.6634 582.41 52.0094 576.046 52.8784C569.687 53.7464 564.043 57.0354 560.163 62.1384L77.0187 697.157C74.0477 701.067 72.3627 705.707 72.1497 710.586C71.8057 718.457 75.3517 725.995 81.6377 730.754L718.46 1212.76C729.017 1220.75 744.128 1218.69 752.143 1208.16L1235.29 573.145C1238.26 569.238 1239.94 564.595 1240.16 559.715M69.8857 710.484C70.1167 705.144 71.9607 700.06 75.2137 695.788L558.354 60.7704C562.604 55.1864 568.778 51.5884 575.739 50.6354C582.701 49.6854 589.618 51.4964 595.22 55.7334L1232.04 537.744C1238.92 542.95 1242.8 551.2 1242.42 559.815C1242.18 565.155 1240.35 570.239 1237.09 574.514L753.951 1209.53C745.179 1221.05 728.643 1223.32 717.086 1214.57L80.2697 732.554C73.3897 727.347 69.5077 719.102 69.8857 710.484" fill="#DADADA"/>
<path id="Fill 10" fill-rule="evenodd" clip-rule="evenodd" d="M1207.23 552.584C1207.56 545.068 1204.21 537.818 1198.28 533.188L585.529 54.8945C580.612 51.0585 574.492 49.3585 568.296 50.1125C562.096 50.8655 556.568 53.9795 552.721 58.8825L73.298 669.905C70.275 673.754 68.567 678.361 68.354 683.232C68.025 690.747 71.372 697.997 77.302 702.628L690.057 1180.92C694.977 1184.76 701.093 1186.46 707.292 1185.7C713.489 1184.95 719.02 1181.83 722.869 1176.93L1202.29 565.912C1205.31 562.064 1207.02 557.452 1207.23 552.584M66.087 683.131C66.323 677.786 68.196 672.734 71.511 668.504L550.934 57.4875C555.154 52.1095 561.224 48.6925 568.019 47.8675C574.818 47.0405 581.531 48.9035 586.928 53.1145L1199.68 531.407C1206.19 536.485 1209.86 544.44 1209.5 552.683C1209.26 558.027 1207.39 563.084 1204.08 567.31L724.655 1178.33C720.434 1183.71 714.364 1187.13 707.567 1187.95C700.769 1188.78 694.053 1186.91 688.663 1182.7L75.903 704.41C69.397 699.33 65.728 691.376 66.087 683.131" fill="#DADADA"/>
<path id="Fill 12" fill-rule="evenodd" clip-rule="evenodd" d="M1174.32 545.452C1174.63 538.292 1171.49 531.334 1165.9 526.835L577.208 52.2547C567.47 44.4047 553.146 45.9167 545.279 55.6267L69.5729 642.658C66.5039 646.444 64.7629 651.02 64.5499 655.881C64.2359 663.043 67.3839 669.999 72.9639 674.499L661.66 1149.08C666.379 1152.88 672.298 1154.62 678.325 1153.99C684.359 1153.35 689.78 1150.41 693.589 1145.71L1169.29 558.68C1172.37 554.888 1174.11 550.312 1174.32 545.452M62.2849 655.783C62.5169 650.435 64.4299 645.405 67.8109 641.233L543.513 54.2047C552.166 43.5247 567.921 41.8607 578.633 50.4937L1167.33 525.076C1173.47 530.02 1176.93 537.676 1176.58 545.55C1176.35 550.896 1174.44 555.928 1171.06 560.104L695.355 1147.13C691.165 1152.3 685.198 1155.54 678.568 1156.24C671.933 1156.94 665.423 1155.02 660.236 1150.84L71.5389 676.259C65.3989 671.312 61.9399 663.656 62.2849 655.783" fill="#DADADA"/>
<path id="Fill 14" fill-rule="evenodd" clip-rule="evenodd" d="M1141.41 538.317C1141.71 531.412 1138.84 524.907 1133.52 520.476L568.889 49.6109C564.368 45.8459 558.654 44.0569 552.787 44.5789C546.921 45.0999 541.613 47.8689 537.837 52.3739L65.8517 615.405C62.7197 619.141 60.9527 623.676 60.7417 628.527C60.4407 635.436 63.3187 641.943 68.6287 646.372L633.266 1117.24C642.594 1125.02 656.521 1123.78 664.316 1114.47L1136.3 551.445C1139.43 547.711 1141.2 543.172 1141.41 538.317M58.4777 628.426C58.7087 623.079 60.6577 618.072 64.1097 613.951L536.094 50.9219C540.261 45.9519 546.115 42.8989 552.585 42.3259C559.054 41.7499 565.361 43.7229 570.343 47.8769L1134.98 518.738C1140.84 523.626 1144.01 530.796 1143.68 538.419C1143.44 543.774 1141.49 548.777 1138.04 552.894L666.057 1115.93C657.457 1126.18 642.096 1127.55 631.808 1118.97L67.1727 648.113C61.3117 643.224 58.1417 636.05 58.4777 628.426" fill="#DADADA"/>
<path id="Fill 16" fill-rule="evenodd" clip-rule="evenodd" d="M1108.51 531.187C1108.79 524.628 1106.11 518.41 1101.14 514.114L560.567 46.9721C556.249 43.2361 550.732 41.4031 545.029 41.8111C539.329 42.2171 534.132 44.8111 530.388 49.1181L62.1303 588.153C58.9363 591.829 57.1383 596.33 56.9263 601.178C56.6393 607.735 59.3253 613.957 64.2903 618.251L604.865 1085.4C609.187 1089.13 614.704 1090.96 620.405 1090.55C626.101 1090.15 631.299 1087.56 635.042 1083.25L1103.3 544.211C1106.5 540.539 1108.3 536.034 1108.51 531.187M54.6593 601.08C54.8933 595.717 56.8863 590.736 60.4153 586.674L528.674 47.6371C532.813 42.8721 538.564 40.0021 544.868 39.5541C551.174 39.1041 557.277 41.1311 562.052 45.2601L1102.63 512.404C1108.12 517.155 1111.09 524.036 1110.78 531.286C1110.54 536.646 1108.55 541.628 1105.02 545.697L636.756 1084.73C632.621 1089.5 626.869 1092.36 620.566 1092.82C614.261 1093.26 608.157 1091.24 603.384 1087.11L62.8053 619.959C57.3103 615.21 54.3443 608.331 54.6593 601.08" fill="#DADADA"/>
<path id="Fill 18" fill-rule="evenodd" clip-rule="evenodd" d="M1075.61 524.054C1075.88 517.847 1073.39 511.907 1068.76 507.754L552.242 44.3232C548.125 40.6262 542.808 38.7522 537.274 39.0442C531.741 39.3342 526.65 41.7562 522.946 45.8652L58.4038 560.906C55.1928 564.462 53.3108 569.054 53.1018 573.827C52.8328 580.033 55.3308 585.975 59.9558 590.124L576.472 1053.56C580.588 1057.25 585.905 1059.13 591.444 1058.84C596.973 1058.55 602.063 1056.13 605.771 1052.02L1070.31 536.977C1073.52 533.42 1075.41 528.827 1075.61 524.054M50.8348 573.73C51.0688 568.432 53.1538 563.337 56.7178 559.394L521.259 44.3522C525.368 39.7962 531.015 37.1062 537.156 36.7832C543.296 36.4602 549.193 38.5432 553.763 42.6432L1070.28 506.075C1075.41 510.678 1078.18 517.268 1077.88 524.153C1077.65 529.45 1075.56 534.539 1072 538.491L607.456 1053.53C603.347 1058.09 597.701 1060.78 591.561 1061.1C585.424 1061.42 579.524 1059.34 574.955 1055.24L58.4378 591.803C53.3048 587.203 50.5368 580.612 50.8348 573.73" fill="#DADADA"/>
<path id="Fill 20" fill-rule="evenodd" clip-rule="evenodd" d="M1042.73 516.921C1042.98 511.059 1040.67 505.4 1036.38 501.392L543.922 41.6794C540.001 38.0174 534.882 36.0974 529.517 36.2754C524.149 36.4524 519.169 38.7024 515.497 42.6144L54.678 533.658C51.4 537.15 49.48 541.703 49.271 546.478C49.016 552.341 51.33 557.999 55.617 562.006L548.076 1021.72C556.169 1029.28 568.922 1028.86 576.499 1020.79L1037.32 529.741C1040.6 526.248 1042.52 521.696 1042.73 516.921M47.004 546.38C47.238 541.066 49.375 535.998 53.02 532.112L513.842 41.0684C517.926 36.7154 523.464 34.2104 529.438 34.0144C535.413 33.8184 541.107 35.9524 545.472 40.0284L1037.93 499.743C1042.71 504.2 1045.28 510.496 1044.99 517.02C1044.76 522.332 1042.63 527.398 1038.98 531.289L578.153 1022.33C569.722 1031.32 555.531 1031.78 546.526 1023.37L54.069 563.656C49.295 559.2 46.721 552.899 47.004 546.38" fill="#DADADA"/>
<path id="Fill 22" fill-rule="evenodd" clip-rule="evenodd" d="M1009.85 509.789C1010.09 504.271 1007.96 498.89 1004 495.033L535.6 39.0306C527.911 31.5476 515.551 31.6966 508.049 39.3626L50.9481 506.412C47.5981 509.83 45.6361 514.351 45.4291 519.123C45.1861 524.648 47.3221 530.025 51.2851 533.883L519.679 989.887C527.37 997.367 539.726 997.214 547.226 989.552L1004.33 522.506C1007.68 519.083 1009.64 514.565 1009.85 509.789M43.1641 519.022C43.3951 513.694 45.5861 508.651 49.3251 504.829L506.428 37.7796C514.804 29.2226 528.599 29.0576 537.181 37.4136L1005.58 493.413C1010 497.719 1012.39 503.725 1012.12 509.89C1011.88 515.221 1009.7 520.266 1005.95 524.087L548.849 991.133C540.475 999.691 526.679 999.859 518.094 991.502L49.7031 535.499C45.2781 531.194 42.8951 525.188 43.1641 519.022" fill="#DADADA"/>
<path id="Fill 24" fill-rule="evenodd" clip-rule="evenodd" d="M976.982 502.657C977.211 497.471 975.25 492.375 971.612 488.672L527.275 36.3838C519.994 28.9748 508.03 28.8518 500.602 36.1088L47.2209 479.16C43.7939 482.511 41.7879 486.989 41.5769 491.774C41.3519 496.959 43.3139 502.055 46.9519 505.762L491.282 958.052C498.566 965.461 510.528 965.58 517.959 958.317L971.34 515.27C974.768 511.92 976.773 507.439 976.982 502.657M39.3109 491.674C39.5459 486.318 41.7949 481.3 45.6339 477.545L499.013 34.4918C507.336 26.3618 520.738 26.5008 528.894 34.7998L973.232 487.086C977.311 491.236 979.502 496.947 979.25 502.755C979.015 508.115 976.767 513.131 972.927 516.886L519.548 959.94C511.231 968.069 497.822 967.932 489.667 959.634L45.3299 507.349C41.2539 503.196 39.0579 497.481 39.3109 491.674" fill="#DADADA"/>
<path id="Fill 26" fill-rule="evenodd" clip-rule="evenodd" d="M944.126 495.526C944.34 490.6 942.602 485.903 939.223 482.3L518.947 33.7349C515.623 30.1829 511.103 28.1329 506.233 27.9679C501.359 27.8029 496.713 29.5409 493.151 32.8589L43.4935 451.915C39.9785 455.19 37.9295 459.63 37.7195 464.422C37.5045 469.347 39.2425 474.044 42.6165 477.647L462.895 926.213C469.767 933.547 481.337 933.935 488.692 927.087L938.353 508.031C941.868 504.758 943.914 500.316 944.126 495.526M35.4525 464.319C35.6885 458.93 37.9915 453.945 41.9385 450.265L491.602 31.2059C495.607 27.4729 500.829 25.5209 506.311 25.7079C511.788 25.8929 516.864 28.1959 520.61 32.1899L940.882 480.757C944.679 484.807 946.633 490.088 946.393 495.625C946.157 501.013 943.851 506.007 939.898 509.684L490.239 928.743C481.977 936.442 468.962 936.005 461.235 927.762L40.9605 479.191C37.1685 475.138 35.2085 469.862 35.4525 464.319" fill="#DADADA"/>
<path id="Fill 28" fill-rule="evenodd" clip-rule="evenodd" d="M911.277 488.394C911.48 483.796 909.902 479.376 906.839 475.936L510.623 31.0841C504.156 23.8251 492.975 23.1621 485.697 29.6071L39.7563 424.672C36.1533 427.862 34.0543 432.263 33.8453 437.068C33.6453 441.662 35.2213 446.09 38.2853 449.528L434.501 894.381C440.967 901.642 452.144 902.305 459.428 895.855L905.365 500.793C908.97 497.602 911.07 493.197 911.277 488.394M31.5773 436.969C31.8153 431.552 34.1863 426.581 38.2533 422.98L484.191 27.9151C492.403 20.6421 505.021 21.3891 512.319 29.5801L908.537 474.435C911.992 478.314 913.774 483.306 913.546 488.493C913.309 493.915 910.938 498.882 906.875 502.485L460.933 897.554C452.718 904.821 440.1 904.077 432.801 895.883L36.5883 451.035C33.1313 447.151 31.3513 442.157 31.5773 436.969" fill="#DADADA"/>
<path id="Fill 30" fill-rule="evenodd" clip-rule="evenodd" d="M878.448 481.264C878.635 476.994 877.215 472.838 874.455 469.565L502.298 28.4302C499.365 24.9502 495.244 22.8172 490.703 22.4282C486.158 22.0372 481.733 23.4322 478.245 26.3602L36.0238 397.43C32.3788 400.487 30.1708 404.965 29.9618 409.716C29.7758 413.987 31.1908 418.14 33.9528 421.416L406.109 862.553C412.168 869.734 422.961 870.662 430.163 864.619L872.384 493.555C876.029 490.496 878.24 486.015 878.448 481.264M27.6938 409.618C27.9298 404.232 30.4338 399.16 34.5608 395.698L476.783 24.6282C480.739 21.3132 485.748 19.7292 490.896 20.1732C496.044 20.6162 500.709 23.0322 504.034 26.9732L876.188 468.11C879.318 471.819 880.923 476.525 880.713 481.361C880.479 486.745 877.974 491.82 873.844 495.287L431.622 866.352C423.463 873.199 411.237 872.146 404.374 864.009L32.2198 422.869C29.0898 419.162 27.4828 414.456 27.6938 409.618" fill="#DADADA"/>
<path id="Fill 32" fill-rule="evenodd" clip-rule="evenodd" d="M845.627 474.133C845.799 470.179 844.535 466.296 842.068 463.194L493.97 25.7763C491.229 22.3333 487.309 20.1583 482.929 19.6553C478.551 19.1513 474.24 20.3793 470.791 23.1093L32.2864 370.184C28.5394 373.15 26.2714 377.588 26.0614 382.365C25.8914 386.313 27.1544 390.197 29.6214 393.303L377.714 830.723C383.372 837.833 393.771 839.028 400.9 833.386L839.399 486.317C843.149 483.35 845.42 478.907 845.627 474.133M23.7944 382.263C24.0284 376.834 26.6124 371.787 30.8794 368.41L469.377 21.3373C473.304 18.2303 478.208 16.8343 483.189 17.4073C488.17 17.9803 492.63 20.4523 495.748 24.3703L843.843 461.789C846.65 465.316 848.09 469.737 847.893 474.233C847.655 479.662 845.078 484.713 840.811 488.086L402.305 835.161C394.209 841.575 382.375 840.215 375.94 832.13L27.8434 394.713C25.0384 391.178 23.5984 386.758 23.7944 382.263" fill="#DADADA"/>
<path id="Fill 34" fill-rule="evenodd" clip-rule="evenodd" d="M812.824 467.006C812.983 463.365 811.866 459.749 809.68 456.82L485.643 23.1174C480.388 16.0864 470.379 14.6254 463.326 19.8624L28.5532 342.941C24.6902 345.808 22.3542 350.207 22.1452 355.006C21.9882 358.646 23.1062 362.26 25.2902 365.194L349.329 798.9C354.581 805.93 364.591 807.389 371.639 802.152L806.422 479.075C810.283 476.207 812.613 471.809 812.824 467.006M19.8782 354.908C20.1172 349.422 22.7872 344.401 27.1962 341.121L461.972 18.0484C470.025 12.0644 481.461 13.7334 487.463 21.7664L811.497 455.47C813.994 458.813 815.275 462.945 815.091 467.105C814.852 472.59 812.185 477.613 807.775 480.892L372.997 803.965C364.943 809.948 353.51 808.277 347.508 800.25L23.4712 366.545C20.9742 363.198 19.6972 359.066 19.8782 354.908" fill="#DADADA"/>
<path id="Fill 36" fill-rule="evenodd" clip-rule="evenodd" d="M780.038 459.88C780.184 456.496 779.237 453.234 777.294 450.446L477.317 20.4574C472.465 13.5014 462.844 11.7784 455.867 16.6144L24.8076 315.697C20.8286 318.459 18.4246 322.814 18.2136 327.65C18.0676 331.034 19.0176 334.294 20.9616 337.08L320.935 767.074C325.787 774.034 335.407 775.755 342.385 770.915L773.446 471.835C777.425 469.075 779.826 464.714 780.038 459.88M15.9486 327.55C16.1896 322.005 18.9486 317.005 23.5156 313.838L454.571 14.7584C462.574 9.2094 473.612 11.1854 479.177 19.1644L779.154 449.154C781.384 452.352 782.475 456.093 782.303 459.977C782.062 465.525 779.306 470.524 774.745 473.693L343.679 772.776C335.679 778.325 324.64 776.348 319.075 768.369L19.0996 338.377C16.8676 335.18 15.7786 331.438 15.9486 327.55" fill="#DADADA"/>
<path id="Fill 38" fill-rule="evenodd" clip-rule="evenodd" d="M747.272 452.754C747.407 449.671 746.591 446.669 744.904 444.068L468.988 17.7924C464.535 10.9174 455.302 8.9304 448.404 13.3684L21.065 288.451C17.017 291.061 14.472 295.487 14.264 300.295C14.13 303.376 14.95 306.376 16.635 308.977L292.548 735.258C297 742.131 306.232 744.116 313.131 739.676L740.472 464.592C744.518 461.986 747.059 457.561 747.272 452.754M11.998 300.195C12.24 294.653 15.171 289.554 19.836 286.553L447.174 11.4674C455.12 6.3514 465.762 8.6414 470.894 16.5674L746.808 442.841C748.75 445.838 749.693 449.3 749.538 452.852C749.297 458.391 746.367 463.493 741.699 466.492L314.361 741.578C306.415 746.692 295.773 744.406 290.643 736.482L14.724 310.209C12.788 307.208 11.842 303.748 11.998 300.195" fill="#DADADA"/>
<path id="Fill 40" fill-rule="evenodd" clip-rule="evenodd" d="M714.521 445.626C714.644 442.843 713.948 440.095 712.516 437.687L460.662 15.1275C456.605 8.3265 447.757 6.0795 440.938 10.1205L17.3215 261.211C13.1335 263.692 10.5045 268.077 10.2925 272.936C10.1705 275.723 10.8665 278.468 12.3015 280.879L264.157 703.438C268.213 710.24 277.059 712.486 283.876 708.441L707.498 457.353C711.686 454.871 714.309 450.488 714.521 445.626M8.0275 272.836C8.2735 267.21 11.3125 262.137 16.1595 259.267L439.777 8.1755C447.675 3.4965 457.916 6.0985 462.607 13.9725L714.462 436.528C716.126 439.319 716.929 442.496 716.79 445.728C716.544 451.353 713.503 456.425 708.657 459.3L285.036 710.391C277.143 715.067 266.898 712.467 262.206 704.594L10.3505 282.034C8.6895 279.246 7.8865 276.062 8.0275 272.836" fill="#DADADA"/>
<path id="Fill 42" fill-rule="evenodd" clip-rule="evenodd" d="M681.798 438.506C681.907 436.006 681.331 433.513 680.124 431.302L452.33 12.4594C448.672 5.7334 440.212 3.2274 433.465 6.8744L13.5679 233.965C9.2319 236.312 6.5149 240.65 6.2999 245.573C6.1899 248.074 6.7669 250.566 7.9709 252.779L235.768 671.622C239.426 678.347 247.886 680.854 254.632 677.206L674.53 450.111C678.867 447.766 681.584 443.43 681.798 438.506M4.0339 245.476C4.2799 239.837 7.5179 234.667 12.4879 231.98L432.386 4.8854C440.229 0.6454 450.072 3.5594 454.326 11.3824L682.121 430.223C683.521 432.8 684.189 435.693 684.066 438.605C683.817 444.242 680.577 449.414 675.614 452.103L255.712 679.197C247.869 683.438 238.028 680.524 233.772 672.698L5.9799 253.858C4.5789 251.281 3.9059 248.384 4.0339 245.476" fill="#DADADA"/>
<g id="Group 46">
<mask id="mask1_0_5371" style="mask-type:luminance" maskUnits="userSpaceOnUse" x="0" y="0" width="652" height="650">
<path id="Clip 45" fill-rule="evenodd" clip-rule="evenodd" d="M0 0H651.383V649.598H0V0Z" fill="white"/>
</mask>
<g mask="url(#mask1_0_5371)">
<path id="Fill 44" fill-rule="evenodd" clip-rule="evenodd" d="M649.102 431.384C649.198 429.162 648.726 426.926 647.735 424.914L444.001 9.7873C440.742 3.1383 432.663 0.3733 425.996 3.6263L9.8146 206.726C5.3816 208.889 2.4976 213.29 2.2826 218.21C2.1856 220.434 2.6546 222.672 3.6436 224.685L207.378 639.812C210.643 646.459 218.717 649.224 225.385 645.969L641.566 442.874C645.996 440.709 648.885 436.307 649.102 431.384M0.0146 218.111C0.2656 212.361 3.6406 207.218 8.8146 204.694L424.996 1.5933C432.786 -2.2057 442.228 1.0223 446.042 8.7923L649.779 423.919C650.931 426.27 651.482 428.885 651.369 431.484C651.117 437.235 647.745 442.379 642.563 444.904L226.383 648.001C218.591 651.806 209.153 648.577 205.34 640.806L1.6016 225.677C0.4486 223.33 -0.0994 220.711 0.0146 218.111" fill="#DADADA"/>
</g>
</g>
</g>
</svg>
