<svg preserveAspectRatio="none" overflow="visible" style="display: block;" width="124" height="107.064" viewBox="0 0 124 107.064" fill="none" xmlns="http://www.w3.org/2000/svg">
<g id="round">
<path id="Combined Shape" fill-rule="evenodd" clip-rule="evenodd" d="M0 69.6358C10.3139 91.7349 32.8561 107.064 59.0051 107.064C94.9008 107.064 124 78.178 124 42.5456C124 28.568 119.522 15.6285 111.913 5.06354L106.301 8.30176C113.369 17.9048 117.541 29.7416 117.541 42.5456C117.541 74.6369 91.3335 100.652 59.0051 100.652C35.24 100.652 14.7827 86.5936 5.61245 66.3975L0 69.6358Z" fill="#68D585"/>
<path id="Combined Shape_2" fill-rule="evenodd" clip-rule="evenodd" d="M18.6496 71.2142C27.615 83.7884 42.4041 92 59.1301 92C86.479 92 108.65 70.0452 108.65 42.9626C108.65 24.4594 98.301 8.34981 83.0225 0L78.5957 4.8972C92.6066 11.9371 102.208 26.3394 102.208 42.9626C102.208 66.5223 82.9214 85.6212 59.1301 85.6212C44.0449 85.6212 30.7708 77.9428 23.0758 66.3176L18.6496 71.2142Z" fill="#161C2D"/>
</g>
</svg>
