<svg preserveAspectRatio="none" overflow="visible" style="display: block;" width="117.751" height="117.543" viewBox="0 0 117.751 117.543" fill="none" xmlns="http://www.w3.org/2000/svg">
<g id="Table--inject-84">
<path id="Path" d="M87.6445 13.1022V13.1022C86.2949 11.752 86.2949 9.56863 87.6445 8.21845L89.2881 6.58073C90.6431 5.23589 92.8343 5.23589 94.1893 6.58073V6.58073C95.5338 7.93137 95.5338 10.1097 94.1893 11.4603L92.5415 13.1022C91.186 14.442 89 14.442 87.6445 13.1022Z" fill="#83FFA3"/>
<path id="Path_2" opacity="0.4" d="M87.6445 13.1022V13.1022C86.2949 11.752 86.2949 9.56863 87.6445 8.21845L89.2881 6.58073C90.6431 5.23589 92.8343 5.23589 94.1893 6.58073V6.58073C95.5338 7.93137 95.5338 10.1097 94.1893 11.4603L92.5415 13.1022C91.186 14.442 89 14.442 87.6445 13.1022Z" fill="white"/>
<path id="Path_3" d="M89.9581 10.8094V10.8094C88.2156 9.06873 88.2156 6.25117 89.9581 4.51048L93.1779 1.30223C94.9248 -0.434075 97.7524 -0.434075 99.4993 1.30223V1.30223C101.244 3.04195 101.244 5.86143 99.4993 7.60116L96.2711 10.8094C94.5233 12.5356 91.706 12.5356 89.9581 10.8094Z" fill="#83FFA3"/>
<path id="Path_4" d="M94.4464 6.32038V6.32038C91.4674 3.36714 86.6536 3.36714 83.6746 6.32038L94.4464 17.058C97.4083 14.0872 97.4083 9.29113 94.4464 6.32038Z" fill="#83FFA3"/>
<path id="Path_5" d="M98.8166 27.1404C98.4558 27.1404 98.1634 26.849 98.1634 26.4896C98.1634 26.1301 98.4558 25.8387 98.8166 25.8387C105.334 25.8387 110.617 20.5744 110.617 14.0807C110.617 7.58689 105.334 2.32265 98.8166 2.32265C98.5714 2.34232 98.336 2.22314 98.2074 2.01429C98.0788 1.80543 98.0788 1.5423 98.2074 1.33344C98.336 1.12459 98.5714 1.00541 98.8166 1.02507C103.554 0.94041 107.969 3.41051 110.363 7.48538C112.756 11.5603 112.756 16.6053 110.363 20.6801C107.969 24.755 103.554 27.2251 98.8166 27.1404V27.1404Z" fill="#83FFA3"/>
<path id="Shape" fill-rule="evenodd" clip-rule="evenodd" d="M99.7943 44.9706L114.704 115.519L115.442 115.498L115.303 117.522H81.2599L81.4284 115.04H83.7252L83.6957 115.498H93.9828L105.543 82.1301L97.8009 45.5123L99.7943 44.9706ZM112.597 115.519L105.854 83.5495L94.7624 115.519H112.597Z" fill="#83FFA3"/>
<path id="Shape_2" fill-rule="evenodd" clip-rule="evenodd" d="M25.5681 44.9916L40.4614 115.519H41.1989L41.0598 117.543H7.021L7.18536 115.061H9.48636L9.45264 115.519H19.7524L31.3121 82.1511L23.5747 45.5333L25.5681 44.9916ZM38.3542 115.519L31.6114 83.5495L20.5109 115.519H38.3542Z" fill="#83FFA3"/>
<path id="Path_6" d="M106.596 80.0053L104.679 85.5357H30.621L32.5343 80.0053H106.596V80.0053Z" fill="#83FFA3"/>
<path id="Path_7" d="M103.68 84.1752L104.679 85.5357H30.621L29.6222 84.1752H103.68V84.1752Z" fill="#83FFA3"/>
<path id="Path_8" opacity="0.2" d="M103.68 84.1752L104.679 85.5357H30.621L29.6222 84.1752H103.68V84.1752Z" fill="black"/>
<path id="Path_9" d="M91.7661 71.4765H1.31064L0 70.1748L116.445 20.8163L117.751 22.1181L91.7661 71.4765V71.4765Z" fill="#83FFA3"/>
<path id="Path_10" opacity="0.4" d="M91.7661 71.4765H1.31064L0 70.1748L116.445 20.8163L117.751 22.1181L91.7661 71.4765V71.4765Z" fill="black"/>
<path id="Rectangle" d="M12.8184 42.6656L15.3285 37.8936L15.7017 38.0885L13.1917 42.8605L12.8184 42.6656Z" fill="#83FFA3"/>
<path id="Rectangle_2" d="M10.7985 46.5015L11.9919 44.2327L12.3651 44.4276L11.1717 46.6964L10.7985 46.5015Z" fill="#83FFA3"/>
<path id="Path_11" d="M90.4554 70.1748H0L25.9895 20.8163H116.445L90.4554 70.1748V70.1748Z" fill="#83FFA3"/>
<path id="Path_12" opacity="0.3" d="M81.361 62.2591L17.3418 62.4859L36.2808 27.1866C51.4522 28.2701 74.1756 28.3708 99.0315 27.8795L81.361 62.2591Z" fill="black"/>
<path id="Path_13" d="M80.4381 62.4859H16.9794L35.2104 27.8585C54.7562 28.5808 75.6886 28.1189 98.235 27.4974C94.7414 36.2235 88.4031 48.8844 80.4381 62.4859Z" fill="white"/>
<g id="Group" opacity="0.6">
<path id="Path_14" d="M28.1556 58.4041C34.1203 58.3706 40.0849 58.3426 46.0495 58.3202L65.2456 58.232L74.8836 58.1858C74.9633 58.173 75.0218 58.1045 75.0218 58.0241C75.0218 57.9438 74.9633 57.8753 74.8836 57.8624L56.9898 57.9464L37.7937 58.0304L28.1556 58.0766C28.0649 58.0766 27.9913 58.1499 27.9913 58.2404C27.9913 58.3308 28.0649 58.4041 28.1556 58.4041V58.4041Z" fill="#83FFA3"/>
<path id="Path_15" d="M74.0956 58.7191C77.9193 51.4683 81.7782 44.2343 85.6722 37.0172C86.796 34.9399 87.9198 32.8627 89.0436 30.7854C89.1448 30.6007 88.8624 30.4369 88.7613 30.6175C84.828 37.8318 80.941 45.0658 77.1004 52.3194C75.9962 54.3994 74.8977 56.4781 73.8048 58.5553C73.7079 58.7401 73.986 58.9039 74.0871 58.7191H74.0956Z" fill="#83FFA3"/>
<path id="Path_16" d="M89.2375 30.9366C83.2448 30.9702 77.2535 30.9982 71.2636 31.0206L51.8399 31.1088L42.2314 31.155C42.1406 31.155 42.067 31.2283 42.067 31.3187C42.067 31.4092 42.1406 31.4825 42.2314 31.4825C48.2241 31.4489 54.2154 31.4209 60.2053 31.3985L79.6289 31.3103L89.2375 31.2641C89.3283 31.2641 89.4019 31.1908 89.4019 31.1004C89.4019 31.0099 89.3283 30.9366 89.2375 30.9366V30.9366Z" fill="#83FFA3"/>
<path id="Path_17" d="M43.365 30.3487C39.5047 37.6807 35.6037 44.9944 31.6619 52.29C30.5381 54.3812 29.4059 56.4697 28.2652 58.5553C28.1641 58.7401 28.4464 58.9039 28.5476 58.7191C32.5146 51.4403 36.448 44.128 40.3476 36.782C41.4545 34.6936 42.5587 32.6037 43.66 30.5125C43.7611 30.3277 43.4788 30.1639 43.3776 30.3487H43.365Z" fill="#83FFA3"/>
<path id="Path_18" d="M49.7454 54.9019L56.3324 41.9597L58.1066 38.4827C58.2035 38.298 57.9211 38.13 57.8242 38.319L51.0266 51.6307L49.4462 54.7172C49.3535 54.9061 49.6359 55.0699 49.7286 54.8809L49.7454 54.9019Z" fill="#83FFA3"/>
<path id="Path_19" d="M34.1104 54.9565L37.9033 47.5238C37.996 47.3348 37.7136 47.1711 37.6209 47.3558L33.8281 54.7928C33.7354 54.9817 34.0177 55.1455 34.1104 54.9565Z" fill="#83FFA3"/>
<path id="Path_20" d="M71.5038 54.9019C74.6603 49.2287 77.4459 43.3581 80.4381 37.5967C81.1714 36.1857 81.9131 34.7748 82.6885 33.3974C82.7896 33.2126 82.5073 33.0488 82.4061 33.2336C79.2496 38.9027 76.4598 44.7775 73.4719 50.5347C72.7386 51.9498 71.9969 53.3566 71.2214 54.734C71.1203 54.9145 71.3984 55.0825 71.5038 54.8977V54.9019Z" fill="#83FFA3"/>
<path id="Path_21" d="M54.1873 54.8599C57.053 49.2455 59.9482 43.6394 62.8055 38.0208L63.7748 36.1143L64.2974 35.0855L64.5544 34.5732C64.6261 34.4346 64.7356 34.0483 64.8789 33.9727C65.09 33.9432 65.3042 33.9432 65.5153 33.9727H66.3202H68.0439C70.609 33.9475 73.1726 33.9265 75.7349 33.9097C78.3267 33.9097 80.9143 33.8887 83.5061 33.9349C83.5857 33.9221 83.6442 33.8536 83.6442 33.7732C83.6442 33.6929 83.5857 33.6244 83.5061 33.6115C77.2563 33.5024 71.0023 33.6115 64.7567 33.6829C64.6981 33.6822 64.6435 33.7126 64.6134 33.7627C61.0819 40.7713 57.4744 47.7422 53.9049 54.7298C53.808 54.9187 54.0904 55.0825 54.1873 54.8935V54.8599Z" fill="#83FFA3"/>
<path id="Path_22" d="M71.5291 54.7802C69.9909 49.2581 68.1576 43.82 66.3961 38.3693C65.8988 36.8352 65.4043 35.3025 64.9126 33.7711C64.8494 33.5696 64.5334 33.6535 64.5966 33.8551C66.3792 39.4444 68.2504 45.0084 69.9656 50.6187C70.387 52.0296 70.8084 53.4448 71.2299 54.8683C71.2579 54.9507 71.3457 54.9968 71.4298 54.9734C71.5139 54.9499 71.5649 54.8651 71.5459 54.7802H71.5291Z" fill="#83FFA3"/>
<path id="Path_23" d="M82.6 33.6241C79.119 36.5637 75.3851 39.1672 71.6639 41.7792C67.6351 44.6053 63.5725 47.381 59.6153 50.2995C57.6599 51.7399 55.7255 53.2138 53.8712 54.7802C53.7111 54.9145 53.9429 55.1455 54.103 55.0111C57.6514 52.017 61.4527 49.3295 65.2498 46.6587C69.2491 43.8452 73.2906 41.0863 77.2352 38.193C79.1401 36.7988 81.0281 35.3711 82.8318 33.8551C82.9919 33.7165 82.7601 33.4898 82.6 33.6241V33.6241Z" fill="#83FFA3"/>
<path id="Path_24" d="M53.5762 54.8138C58.3974 54.9523 63.2185 55.0069 68.0396 55.0111C69.2028 55.0111 70.3701 55.0111 71.5333 54.9859C71.6129 54.9731 71.6714 54.9046 71.6714 54.8243C71.6714 54.7439 71.6129 54.6754 71.5333 54.6626C66.6995 54.755 61.8404 54.6626 57.0193 54.5702C55.873 54.545 54.7225 54.524 53.5762 54.4904C53.4966 54.5032 53.4381 54.5717 53.4381 54.6521C53.4381 54.7324 53.4966 54.8009 53.5762 54.8138V54.8138Z" fill="#83FFA3"/>
<path id="Path_25" d="M46.8924 55.0111C49.9646 49.3127 52.7924 43.4967 55.7719 37.7436C56.5051 36.3215 57.2497 34.9049 58.0054 33.494C58.1024 33.3092 57.82 33.1454 57.7231 33.3302C54.6509 39.0286 51.8231 44.8446 48.8436 50.5977C48.1103 52.0212 47.3728 53.4406 46.61 54.8473C46.5131 55.0321 46.7954 55.1959 46.8924 55.0111Z" fill="#83FFA3"/>
<path id="Path_26" d="M37.819 54.9397C39.7407 51.1772 41.6652 47.416 43.5926 43.6562C44.5534 41.775 45.5143 39.8937 46.4751 38.0124C46.9471 37.0928 47.4149 36.1689 47.8827 35.2493C48.0344 34.9469 48.2662 34.1827 48.5949 34.0525C48.8742 34.0091 49.1585 34.0091 49.4378 34.0525H50.3734C52.8176 34.0105 55.2661 33.9643 57.7146 34.0525C57.9211 34.0525 57.9211 33.7333 57.7146 33.7249C54.6087 33.6283 51.5028 33.7249 48.4011 33.7711C48.3424 33.7703 48.2878 33.8007 48.2578 33.8509C44.7136 40.8511 41.1188 47.8303 37.5493 54.818C37.4524 55.0027 37.7347 55.1707 37.8316 54.9817L37.819 54.9397Z" fill="#83FFA3"/>
<path id="Path_27" d="M46.9176 54.9313C47.5456 47.9227 47.8996 40.8973 48.5486 33.8929C48.5696 33.6829 48.2451 33.6829 48.2241 33.8929C47.5751 40.8973 47.2211 47.9227 46.5889 54.9313C46.5889 55.1371 46.8966 55.1371 46.9176 54.9313Z" fill="#83FFA3"/>
<path id="Path_28" d="M57.761 33.7291C52.5353 39.3478 47.1073 44.7733 41.8015 50.3121C40.3546 51.8155 38.9217 53.3314 37.5029 54.8599C37.3596 55.0111 37.5914 55.2421 37.7347 55.0867C42.9899 49.4177 48.4601 43.946 53.8164 38.3693C55.2212 36.908 56.6133 35.4382 57.9928 33.9601C58.1361 33.8089 57.9043 33.578 57.761 33.7291V33.7291Z" fill="#83FFA3"/>
<path id="Path_29" d="M37.4144 54.9019C40.5204 55.0531 43.6431 55.1875 46.7533 55.0993C46.964 55.0993 46.964 54.7676 46.7533 54.776C43.6431 54.8599 40.5204 54.7298 37.4144 54.5786C37.2037 54.5786 37.2037 54.8935 37.4144 54.9019Z" fill="#83FFA3"/>
<path id="Path_30" d="M42.4252 35.6146C42.2677 35.8741 42.2207 36.1855 42.2946 36.4797C42.3745 36.7295 42.5786 36.9202 42.834 36.9836C43.4587 37.0853 44.0962 36.9018 44.5703 36.4839C45.0639 36.125 45.3427 35.5424 45.312 34.9343C45.2401 34.4237 44.7829 34.0563 44.2669 34.0945C43.9067 34.1353 43.5732 34.3037 43.3271 34.569C43.1904 34.6946 43.061 34.8278 42.9394 34.9679C42.8224 35.0849 42.7369 35.2293 42.6907 35.3878C42.6528 35.5936 42.9689 35.6818 43.0068 35.476C43.0447 35.2703 43.2807 35.0561 43.4282 34.9091C43.5937 34.7237 43.7942 34.5724 44.0182 34.464C44.1972 34.3843 44.4018 34.3847 44.5805 34.4649C44.7593 34.5451 44.8951 34.6976 44.9538 34.8839C45.0268 35.3296 44.8682 35.7817 44.5324 36.0849C44.1761 36.4546 43.6964 36.6816 43.1838 36.7232C42.9736 36.753 42.763 36.6719 42.6275 36.5091C42.521 36.2805 42.5418 36.0131 42.6823 35.8036C42.7792 35.6188 42.4969 35.455 42.3999 35.6398L42.4252 35.6146Z" fill="#83FFA3"/>
</g>
<path id="Path_31" opacity="0.2" d="M116.445 20.8163L90.4681 70.1748H0L25.9895 20.8163H51.92L38.704 26.8507H38.6745C31.9316 29.2989 26.5416 33.0488 23.7854 37.7311C17.464 48.456 27.3971 59.9873 45.9526 63.5231C64.5081 67.0589 84.6608 61.1967 90.9696 50.4717C92.2861 48.3273 92.9426 45.8453 92.8576 43.3329L94.2188 20.7911L116.445 20.8163Z" fill="black"/>
</g>
</svg>
